# This file uses centimeters as units for non-parametric coordinates.

mtllib Table.mtl
g default
v -7.995239 -0.030871 6.981333
v -6.995239 -0.030871 6.981333
v -7.995239 0.590473 6.981333
v -6.995239 0.590473 6.981333
v -7.995239 0.590473 -6.981333
v -6.995239 0.590473 -6.981333
v -7.995239 -0.030871 -6.981333
v -6.995239 -0.030871 -6.981333
v -6.995239 -0.030871 5.902246
v -7.995239 -0.030871 5.902246
v -7.995239 0.590473 5.902246
v -6.995239 0.590473 5.902246
v -6.995239 -0.030871 -5.902246
v -7.995239 -0.030871 -5.902246
v -7.995239 0.590473 -5.902246
v -6.995239 0.590473 -5.902246
v -7.995239 -10.018030 -9.622243
v -6.995238 -10.018030 -9.622243
v -6.995238 -10.008996 -9.132462
v -7.995239 -10.008996 -9.132462
v -6.995242 -10.008965 9.163822
v -7.995236 -10.008965 9.163822
v -6.995242 -10.018029 9.623553
v -7.995236 -10.018029 9.623553
v -6.995239 -6.688976 7.960577
v -7.995239 -6.688976 7.960577
v -7.995239 -6.688976 8.806907
v -6.995239 -6.688976 8.806907
v -6.995239 -3.359924 6.931411
v -7.995239 -3.359924 6.931411
v -7.995239 -3.359924 7.816549
v -6.995239 -3.359924 7.816549
v -6.995239 -6.688976 -7.957101
v -6.995239 -6.688977 -8.788542
v -7.995239 -6.688977 -8.788543
v -7.995239 -6.688976 -7.957101
v -6.995239 -3.359924 -6.929673
v -6.995239 -3.359924 -7.807367
v -7.995239 -3.359924 -7.807367
v -7.995239 -3.359924 -6.929674
v 6.931228 -0.030871 6.981333
v 7.931228 -0.030871 6.981333
v 6.931228 0.590473 6.981333
v 7.931228 0.590473 6.981333
v 6.931228 0.590473 -6.981333
v 7.931228 0.590473 -6.981333
v 6.931228 -0.030871 -6.981333
v 7.931228 -0.030871 -6.981333
v 7.931228 -0.030871 5.902246
v 6.931228 -0.030871 5.902246
v 6.931228 0.590473 5.902246
v 7.931228 0.590473 5.902246
v 7.931228 -0.030871 -5.902246
v 6.931228 -0.030871 -5.902246
v 6.931228 0.590473 -5.902246
v 7.931228 0.590473 -5.902246
v 6.931228 -10.018030 -9.622243
v 7.931229 -10.018030 -9.622243
v 7.931229 -10.008996 -9.132462
v 6.931228 -10.008996 -9.132462
v 7.931225 -10.008965 9.163822
v 6.931231 -10.008965 9.163822
v 7.931225 -10.018029 9.623553
v 6.931231 -10.018029 9.623553
v 7.931228 -6.688976 7.960577
v 6.931228 -6.688976 7.960577
v 6.931228 -6.688976 8.806907
v 7.931228 -6.688976 8.806907
v 7.931228 -3.359924 6.931411
v 6.931228 -3.359924 6.931411
v 6.931228 -3.359924 7.816549
v 7.931228 -3.359924 7.816549
v 7.931228 -6.688976 -7.957101
v 7.931228 -6.688977 -8.788542
v 6.931228 -6.688977 -8.788543
v 6.931228 -6.688976 -7.957101
v 7.931228 -3.359924 -6.929673
v 7.931228 -3.359924 -7.807367
v 6.931228 -3.359924 -7.807367
v 6.931228 -3.359924 -6.929674
v -9.108505 0.291748 16.995596
v 9.108505 0.291748 16.995596
v -9.108505 0.712489 16.995596
v 9.108505 0.712489 16.995596
v -9.108505 0.712489 -16.995596
v 9.108505 0.712489 -16.995596
v -9.108505 0.291748 -16.995596
v 9.108505 0.291748 -16.995596
v -6.995239 0.590473 0.000000
v -6.995239 -0.030871 0.000000
v -7.995239 -0.030871 0.000000
v -7.995239 0.590473 0.000000
v 7.931228 0.590473 0.000000
v 7.931228 -0.030871 0.000000
v 6.931228 -0.030871 0.000000
v 6.931228 0.590473 0.000000
v 7.931228 0.590473 0.990418
v 7.931228 -0.030871 0.990418
v 6.931228 -0.030871 0.990418
v 6.931228 0.590473 0.990418
v -6.995239 0.590473 1.031685
v -6.995239 -0.030871 1.031685
v -7.995239 -0.030871 1.031685
v -7.995239 0.590473 1.031685
v 6.931228 0.590473 0.990418
v 6.931228 -0.030871 0.990418
v 6.931228 -0.030871 -0.000000
v 6.931228 0.590473 -0.000000
vt 0.273846 0.282969
vt 0.273879 0.437347
vt 0.195716 0.283034
vt 0.195749 0.437412
vt 0.186286 0.657901
vt 0.282566 0.657901
vt 0.186286 0.811296
vt 0.282566 0.811296
vt 0.186286 0.964691
vt 0.282566 0.964691
vt 0.273912 0.591724
vt 0.195782 0.591789
vt 0.273813 0.128592
vt 0.195683 0.128657
vt 0.282566 0.913560
vt 0.273890 0.488806
vt 0.273835 0.231510
vt 0.186286 0.913560
vt 0.195705 0.231575
vt 0.195760 0.488871
vt 0.282566 0.862428
vt 0.273901 0.540265
vt 0.273824 0.180051
vt 0.186286 0.862428
vt 0.195694 0.180116
vt 0.195771 0.540330
vt 0.186286 0.811296
vt 0.282566 0.811296
vt 0.282566 0.862428
vt 0.186286 0.862428
vt 0.186286 0.913560
vt 0.282566 0.913560
vt 0.282566 0.964691
vt 0.186286 0.964691
vt 0.282566 0.913560
vt 0.186286 0.913560
vt 0.186286 0.964691
vt 0.282566 0.964691
vt 0.282566 0.913560
vt 0.186286 0.913560
vt 0.186286 0.964691
vt 0.282566 0.964691
vt 0.282566 0.862428
vt 0.282566 0.811296
vt 0.186286 0.811296
vt 0.186286 0.862428
vt 0.282566 0.862428
vt 0.282566 0.811296
vt 0.186286 0.811296
vt 0.186286 0.862428
vt 0.273846 0.282969
vt 0.273879 0.437347
vt 0.195749 0.437412
vt 0.195716 0.283034
vt 0.186286 0.657901
vt 0.282566 0.657901
vt 0.282566 0.811296
vt 0.186286 0.811296
vt 0.186286 0.811296
vt 0.282566 0.811296
vt 0.282566 0.862428
vt 0.186286 0.862428
vt 0.195771 0.540330
vt 0.273901 0.540265
vt 0.273912 0.591724
vt 0.195782 0.591789
vt 0.273813 0.128592
vt 0.273824 0.180051
vt 0.195694 0.180116
vt 0.195683 0.128657
vt 0.186286 0.913560
vt 0.282566 0.913560
vt 0.282566 0.964691
vt 0.186286 0.964691
vt 0.195705 0.231575
vt 0.273835 0.231510
vt 0.273890 0.488806
vt 0.195760 0.488871
vt 0.186286 0.862428
vt 0.282566 0.862428
vt 0.282566 0.913560
vt 0.186286 0.913560
vt 0.282566 0.811296
vt 0.186286 0.811296
vt 0.282566 0.862428
vt 0.186286 0.862428
vt 0.282566 0.913560
vt 0.186286 0.913560
vt 0.282566 0.964691
vt 0.282566 0.964691
vt 0.186286 0.964691
vt 0.186286 0.964691
vt 0.186286 0.913560
vt 0.282566 0.913560
vt 0.186286 0.964691
vt 0.282566 0.964691
vt 0.282566 0.811296
vt 0.282566 0.862428
vt 0.186286 0.811296
vt 0.186286 0.862428
vt 0.617246 0.204945
vt 0.729661 0.204945
vt 0.729661 0.353475
vt 0.617246 0.353475
vt 0.726357 0.500592
vt 0.620550 0.500592
vt 0.726357 0.668109
vt 0.620550 0.668109
vt 0.726357 0.835626
vt 0.620550 0.835626
vt 0.842076 0.204945
vt 0.842076 0.353475
vt 0.504831 0.204945
vt 0.504831 0.353475
vt 0.195765 0.514600
vt 0.282566 0.887994
vt 0.273896 0.514535
vt 0.273830 0.205780
vt 0.186286 0.887994
vt 0.195699 0.205845
vt 0.195765 0.514600
vt 0.282566 0.887994
vt 0.273896 0.514535
vt 0.273830 0.205780
vt 0.186286 0.887994
vt 0.195699 0.205845
vt 0.195764 0.510283
vt 0.282566 0.892284
vt 0.273895 0.510218
vt 0.273831 0.210098
vt 0.186286 0.892284
vt 0.195700 0.210163
vt 0.195764 0.510103
vt 0.282566 0.892463
vt 0.273895 0.510038
vt 0.273831 0.210278
vt 0.186286 0.892463
vt 0.195700 0.210343
vt 0.195764 0.510103
vt 0.273895 0.510038
vt 0.273896 0.514535
vt 0.195765 0.514600
vn 0.000000 0.000000 1.000000
vn 0.000000 0.000000 1.000000
vn 0.000000 0.000000 1.000000
vn 0.000000 0.000000 1.000000
vn 0.000000 0.000000 -1.000000
vn 0.000000 0.000000 -1.000000
vn 0.000000 0.000000 -1.000000
vn 0.000000 0.000000 -1.000000
vn 0.000000 -0.999830 0.018442
vn 0.000000 -0.999830 0.018442
vn 0.000000 -0.999830 0.018442
vn 0.000000 -0.999830 0.018442
vn 1.000000 0.000000 0.000000
vn 1.000000 0.000000 0.000000
vn 1.000000 0.000000 0.000000
vn 1.000000 0.000000 0.000000
vn -1.000000 0.000000 0.000000
vn -1.000000 0.000000 0.000000
vn -1.000000 0.000000 0.000000
vn -1.000000 0.000000 0.000000
vn 0.000000 -0.999806 -0.019712
vn 0.000000 -0.999806 -0.019712
vn 0.000000 -0.999806 -0.019712
vn 0.000000 -0.999806 -0.019712
vn -1.000000 0.000000 0.000000
vn -1.000000 0.000000 0.000000
vn -1.000000 0.000000 0.000000
vn -1.000000 0.000000 0.000000
vn 1.000000 0.000000 0.000000
vn 1.000000 0.000000 -0.000000
vn 1.000000 0.000000 -0.000000
vn 1.000000 0.000000 0.000000
vn 0.000000 -1.000000 0.000000
vn 0.000000 -1.000000 0.000000
vn 0.000000 -1.000000 -0.000000
vn 0.000000 -1.000000 0.000000
vn -1.000000 0.000000 0.000000
vn -1.000000 0.000000 0.000000
vn 1.000000 0.000000 0.000000
vn 1.000000 0.000000 0.000000
vn 0.000000 0.240826 -0.970568
vn 0.000000 0.240826 -0.970568
vn 0.000000 0.261952 -0.965081
vn 0.000000 0.261952 -0.965081
vn 1.000000 0.000000 0.000000
vn 1.000000 0.000000 0.000000
vn 1.000000 0.000000 0.000000
vn 1.000000 0.000000 0.000000
vn 0.000000 -0.294900 0.955528
vn 0.000000 -0.294900 0.955528
vn 0.000000 -0.294900 0.955528
vn 0.000000 -0.294900 0.955528
vn -1.000000 0.000000 0.000000
vn -1.000000 0.000000 0.000000
vn -1.000000 0.000000 0.000000
vn -1.000000 0.000000 0.000000
vn 0.000000 -0.295355 -0.955388
vn 0.000000 -0.295355 -0.955388
vn 0.000000 -0.295355 -0.955388
vn 0.000000 -0.295355 -0.955388
vn 1.000000 0.000000 0.000000
vn 1.000000 0.000000 0.000000
vn 1.000000 0.000000 0.000000
vn 1.000000 0.000000 0.000000
vn 0.000000 0.243345 0.969940
vn 0.000000 0.243345 0.969940
vn 0.000000 0.264429 0.964405
vn 0.000000 0.264429 0.964405
vn -1.000000 0.000000 0.000000
vn -1.000000 0.000000 0.000000
vn -1.000000 0.000000 0.000000
vn -1.000000 0.000000 0.000000
vn 0.000000 -0.318288 -0.947994
vn 0.000000 -0.318288 -0.947994
vn 0.000000 -0.340736 -0.940159
vn 0.000000 -0.340736 -0.940159
vn -1.000000 -0.000000 -0.000000
vn -1.000000 -0.000000 -0.000000
vn -1.000000 -0.000001 -0.000000
vn -1.000000 -0.000001 -0.000000
vn 0.000000 0.261924 0.965088
vn 0.000000 0.261924 0.965088
vn 0.000000 0.238245 0.971205
vn 0.000000 0.238245 0.971205
vn 1.000000 -0.000000 -0.000000
vn 1.000000 -0.000000 -0.000000
vn 1.000000 -0.000001 -0.000000
vn 1.000000 -0.000001 -0.000000
vn 1.000000 0.000000 -0.000000
vn 1.000000 0.000000 -0.000000
vn 1.000000 0.000000 -0.000000
vn 1.000000 0.000000 -0.000000
vn 0.000000 0.262986 -0.964800
vn 0.000000 0.262986 -0.964800
vn 0.000000 0.242930 -0.970044
vn 0.000000 0.242930 -0.970044
vn -1.000000 0.000000 -0.000000
vn -1.000000 0.000000 -0.000000
vn -1.000000 0.000000 -0.000000
vn -1.000000 0.000000 -0.000000
vn 0.000000 -0.314484 0.949263
vn 0.000000 -0.314484 0.949263
vn 0.000000 -0.333726 0.942670
vn 0.000000 -0.333726 0.942670
vn 0.000000 0.000000 1.000000
vn 0.000000 0.000000 1.000000
vn 0.000000 0.000000 1.000000
vn 0.000000 0.000000 1.000000
vn 0.000000 0.000000 -1.000000
vn 0.000000 0.000000 -1.000000
vn 0.000000 0.000000 -1.000000
vn 0.000000 0.000000 -1.000000
vn 0.000000 -0.999830 0.018442
vn 0.000000 -0.999830 0.018442
vn 0.000000 -0.999830 0.018442
vn 0.000000 -0.999830 0.018442
vn 1.000000 0.000000 0.000000
vn 1.000000 0.000000 0.000000
vn 1.000000 0.000000 0.000000
vn 1.000000 0.000000 0.000000
vn -1.000000 0.000000 0.000000
vn -1.000000 0.000000 0.000000
vn -1.000000 0.000000 0.000000
vn -1.000000 0.000000 0.000000
vn 0.000000 -0.999806 -0.019712
vn 0.000000 -0.999806 -0.019712
vn 0.000000 -0.999806 -0.019712
vn 0.000000 -0.999806 -0.019712
vn -1.000000 0.000000 0.000000
vn -1.000000 0.000000 0.000000
vn -1.000000 0.000000 0.000000
vn -1.000000 0.000000 0.000000
vn 1.000000 0.000000 0.000000
vn 1.000000 0.000000 -0.000000
vn 1.000000 0.000000 -0.000000
vn 1.000000 0.000000 0.000000
vn 0.000000 -1.000000 0.000000
vn 0.000000 -1.000000 0.000000
vn 0.000000 -1.000000 0.000000
vn 0.000000 -1.000000 0.000000
vn -1.000000 0.000000 0.000000
vn -1.000000 0.000000 0.000000
vn 1.000000 0.000000 0.000000
vn 1.000000 0.000000 0.000000
vn 0.000000 0.240826 -0.970568
vn 0.000000 0.240826 -0.970568
vn 0.000000 0.261952 -0.965081
vn 0.000000 0.261952 -0.965081
vn 1.000000 0.000000 0.000000
vn 1.000000 0.000000 0.000000
vn 1.000000 0.000000 0.000000
vn 1.000000 0.000000 0.000000
vn 0.000000 -0.294900 0.955528
vn 0.000000 -0.294900 0.955528
vn 0.000000 -0.294900 0.955528
vn 0.000000 -0.294900 0.955528
vn -1.000000 -0.000000 0.000000
vn -1.000000 -0.000000 0.000000
vn -1.000000 0.000000 0.000000
vn -1.000000 -0.000000 0.000000
vn 0.000000 -0.295355 -0.955388
vn 0.000000 -0.295355 -0.955388
vn 0.000000 -0.295355 -0.955388
vn 0.000000 -0.295355 -0.955388
vn 1.000000 0.000000 0.000000
vn 1.000000 0.000000 0.000000
vn 1.000000 -0.000000 0.000000
vn 1.000000 -0.000000 0.000000
vn 0.000000 0.243345 0.969940
vn 0.000000 0.243345 0.969940
vn 0.000000 0.264429 0.964405
vn 0.000000 0.264429 0.964405
vn -1.000000 0.000000 0.000000
vn -1.000000 0.000000 0.000000
vn -1.000000 0.000000 0.000000
vn -1.000000 0.000000 0.000000
vn 0.000000 -0.318288 -0.947994
vn 0.000000 -0.318288 -0.947994
vn 0.000000 -0.340736 -0.940159
vn 0.000000 -0.340736 -0.940159
vn -1.000000 -0.000000 -0.000000
vn -1.000000 -0.000000 -0.000000
vn -1.000000 -0.000001 -0.000000
vn -1.000000 -0.000001 -0.000000
vn 0.000000 0.261924 0.965088
vn 0.000000 0.261924 0.965088
vn 0.000000 0.238245 0.971205
vn 0.000000 0.238245 0.971205
vn 1.000000 -0.000001 -0.000000
vn 1.000000 -0.000001 -0.000000
vn 1.000000 -0.000001 -0.000000
vn 1.000000 -0.000001 -0.000000
vn 1.000000 0.000000 -0.000000
vn 1.000000 0.000000 -0.000000
vn 1.000000 0.000000 -0.000000
vn 1.000000 0.000000 -0.000000
vn 0.000000 0.262986 -0.964800
vn 0.000000 0.262986 -0.964800
vn 0.000000 0.242930 -0.970044
vn 0.000000 0.242930 -0.970044
vn -1.000000 0.000000 -0.000000
vn -1.000000 0.000000 -0.000000
vn -1.000000 0.000000 -0.000000
vn -1.000000 0.000000 -0.000000
vn 0.000000 -0.314484 0.949263
vn 0.000000 -0.314484 0.949263
vn 0.000000 -0.333726 0.942670
vn 0.000000 -0.333726 0.942670
vn 0.000000 0.000000 1.000000
vn 0.000000 0.000000 1.000000
vn 0.000000 0.000000 1.000000
vn 0.000000 0.000000 1.000000
vn 0.000000 1.000000 0.000000
vn 0.000000 1.000000 0.000000
vn 0.000000 1.000000 0.000000
vn 0.000000 1.000000 0.000000
vn 0.000000 0.000000 -1.000000
vn 0.000000 0.000000 -1.000000
vn 0.000000 0.000000 -1.000000
vn 0.000000 0.000000 -1.000000
vn 0.000000 -1.000000 0.000000
vn 0.000000 -1.000000 0.000000
vn 0.000000 -1.000000 0.000000
vn 0.000000 -1.000000 0.000000
vn 1.000000 0.000000 0.000000
vn 1.000000 0.000000 0.000000
vn 1.000000 0.000000 0.000000
vn 1.000000 0.000000 0.000000
vn -1.000000 0.000000 0.000000
vn -1.000000 0.000000 0.000000
vn -1.000000 0.000000 0.000000
vn -1.000000 0.000000 0.000000
vn 1.000000 0.000000 0.000000
vn 1.000000 0.000000 0.000000
vn 1.000000 0.000000 0.000000
vn 1.000000 0.000000 0.000000
vn 0.000000 -1.000000 -0.000000
vn 0.000000 -1.000000 0.000000
vn -1.000000 0.000000 0.000000
vn -1.000000 0.000000 0.000000
vn 1.000000 0.000000 -0.000000
vn 1.000000 0.000000 -0.000000
vn 0.000000 -1.000000 0.000000
vn 0.000000 -1.000000 0.000000
vn 0.000000 -1.000000 0.000000
vn 0.000000 -1.000000 0.000000
vn -1.000000 0.000000 0.000000
vn -1.000000 0.000000 0.000000
vn 1.000000 0.000000 -0.000000
vn 1.000000 0.000000 -0.000000
vn 0.000000 -1.000000 0.000000
vn 0.000000 -1.000000 0.000000
vn 0.002963 -0.000000 0.999996
vn 0.002963 -0.000000 0.999996
vn 0.002963 -0.000000 0.999996
vn 0.002963 -0.000000 0.999996
vn 0.000000 -1.000000 -0.000000
vn 0.000000 -1.000000 -0.000000
vn -0.000000 0.000000 -1.000000
vn -0.000000 0.000000 -1.000000
vn -0.000000 0.000000 -1.000000
vn -0.000000 0.000000 -1.000000
vn 0.000000 1.000000 -0.000000
vn 0.000000 1.000000 -0.000000
vn 0.000000 1.000000 -0.000000
vn 0.000000 1.000000 -0.000000
s off
g pCube4
usemtl phong1SG
f 1/1/1 2/2/2 4/4/3 3/3/4
f 5/5/5 6/6/6 8/8/7 7/7/8
f 17/27/9 18/28/10 19/29/11 20/30/12
s 1
f 16/26/13 13/22/14 8/11/15 6/12/16
s 2
f 7/13/17 14/23/18 15/25/19 5/14/20
s off
f 22/31/21 21/32/22 23/33/23 24/34/24
s 2
f 11/19/25 10/17/26 1/1/27 3/3/28
s 4
f 2/2/29 9/16/30 12/20/31 4/4/32
s 5
f 14/24/33 13/21/34 90/116/35 91/119/36
s 2
f 15/25/19 14/23/18 91/118/37 92/120/38
s 1
f 89/115/39 90/117/40 13/22/14 16/26/13
s 6
f 7/7/41 8/8/42 38/48/43 39/49/44
s 7
f 8/8/45 13/21/46 37/47/47 38/48/48
s 8
f 13/21/49 14/24/50 40/50/51 37/47/52
s 9
f 14/24/53 7/7/54 39/49/55 40/50/56
s 10
f 10/18/57 9/15/58 29/39/59 30/40/60
s 11
f 9/15/61 2/10/62 32/42/63 29/39/64
s 12
f 2/10/65 1/9/66 31/41/67 32/42/68
s 13
f 1/9/69 10/18/70 30/40/71 31/41/72
s 10
f 26/36/73 25/35/74 21/32/75 22/31/76
s 13
f 27/37/77 26/36/78 22/31/79 24/34/80
s 12
f 28/38/81 27/37/82 24/34/83 23/33/84
s 11
f 25/35/85 28/38/86 23/33/87 21/32/88
s 10
f 30/40/60 29/39/59 25/35/74 26/36/73
s 13
f 31/41/72 30/40/71 26/36/78 27/37/77
s 12
f 32/42/68 31/41/67 27/37/82 28/38/81
s 11
f 29/39/64 32/42/63 28/38/86 25/35/85
s 7
f 34/44/89 33/43/90 19/29/91 18/28/92
s 6
f 35/45/93 34/44/94 18/28/95 17/27/96
s 9
f 36/46/97 35/45/98 17/27/99 20/30/100
s 8
f 33/43/101 36/46/102 20/30/103 19/29/104
s 7
f 38/48/48 37/47/47 33/43/90 34/44/89
s 6
f 39/49/44 38/48/43 34/44/94 35/45/93
s 9
f 40/50/56 39/49/55 35/45/98 36/46/97
s 8
f 37/47/52 40/50/51 36/46/102 33/43/101
s off
f 41/51/105 42/52/106 44/53/107 43/54/108
f 45/55/109 46/56/110 48/57/111 47/58/112
f 57/59/113 58/60/114 59/61/115 60/62/116
s 14
f 56/63/117 53/64/118 48/65/119 46/66/120
s 15
f 47/67/121 54/68/122 55/69/123 45/70/124
s off
f 62/71/125 61/72/126 63/73/127 64/74/128
s 16
f 51/75/129 50/76/130 41/51/131 43/54/132
s 14
f 42/52/133 49/77/134 52/78/135 44/53/136
s 18
f 54/79/137 53/80/138 94/122/139 95/125/140
s 15
f 55/69/123 54/68/122 95/124/141 96/126/142
s 14
f 93/121/143 94/123/144 53/64/118 56/63/117
s 19
f 47/58/145 48/57/146 78/83/147 79/84/148
s 20
f 48/57/149 53/80/150 77/85/151 78/83/152
s 21
f 53/80/153 54/79/154 80/86/155 77/85/156
s 22
f 54/79/157 47/58/158 79/84/159 80/86/160
s 23
f 50/82/161 49/81/162 69/87/163 70/88/164
s 24
f 49/81/165 42/89/166 72/90/167 69/87/168
s 25
f 42/89/169 41/91/170 71/92/171 72/90/172
s 26
f 41/91/173 50/82/174 70/88/175 71/92/176
s 23
f 66/93/177 65/94/178 61/72/179 62/71/180
s 26
f 67/95/181 66/93/182 62/71/183 64/74/184
s 25
f 68/96/185 67/95/186 64/74/187 63/73/188
s 24
f 65/94/189 68/96/190 63/73/191 61/72/192
s 23
f 70/88/164 69/87/163 65/94/178 66/93/177
s 26
f 71/92/176 70/88/175 66/93/182 67/95/181
s 25
f 72/90/172 71/92/171 67/95/186 68/96/185
s 24
f 69/87/168 72/90/167 68/96/190 65/94/189
s 20
f 74/97/193 73/98/194 59/61/195 58/60/196
s 19
f 75/99/197 74/97/198 58/60/199 57/59/200
s 22
f 76/100/201 75/99/202 57/59/203 60/62/204
s 21
f 73/98/205 76/100/206 60/62/207 59/61/208
s 20
f 78/83/152 77/85/151 73/98/194 74/97/193
s 19
f 79/84/148 78/83/147 74/97/198 75/99/197
s 22
f 80/86/160 79/84/159 75/99/202 76/100/201
s 21
f 77/85/156 80/86/155 76/100/206 73/98/205
s off
f 81/101/209 82/102/210 84/103/211 83/104/212
f 83/104/213 84/103/214 86/105/215 85/106/216
f 85/106/217 86/105/218 88/107/219 87/108/220
f 87/108/221 88/107/222 82/109/223 81/110/224
f 82/102/225 88/111/226 86/112/227 84/103/228
f 87/113/229 81/101/230 83/104/231 85/114/232
f 105/139/233 106/140/234 107/141/235 108/142/236
s 5
f 91/119/36 90/116/35 102/134/237 103/137/238
s 2
f 92/120/38 91/118/37 103/136/239 104/138/240
s 14
f 97/127/241 98/129/242 94/123/144 93/121/143
s 18
f 95/125/140 94/122/139 98/128/243 99/131/244
s 14
f 52/78/135 49/77/134 98/129/242 97/127/241
s 18
f 99/131/244 98/128/243 49/81/245 50/82/246
s 16
f 100/132/247 99/130/248 50/76/130 51/75/129
s 4
f 12/20/31 9/16/30 102/135/249 101/133/250
s 5
f 103/137/238 102/134/237 9/15/251 10/18/252
s 2
f 104/138/240 103/136/239 10/17/26 11/19/25
s off
f 101/133/253 102/135/254 106/140/255 105/139/256
s 5
f 102/135/237 90/117/35 107/141/257 106/140/258
s off
f 90/117/259 89/115/260 108/142/261 107/141/262
f 89/115/263 101/133/264 105/139/265 108/142/266
